<?xml version="1.0" standalone="no"?>
<!DOCTYPE svg PUBLIC "-//W3C//DTD SVG 20010904//EN"
 "http://www.w3.org/TR/2001/REC-SVG-20010904/DTD/svg10.dtd">
<svg version="1.0" xmlns="http://www.w3.org/2000/svg"
 width="1024.000000pt" height="1024.000000pt" viewBox="0 0 1024.000000 1024.000000"
 preserveAspectRatio="xMidYMid meet">
<metadata>
Created by potrace 1.11, written by Peter Selinger 2001-2013
</metadata>
<g transform="translate(0.000000,1024.000000) scale(0.100000,-0.100000)"
fill="#000000" stroke="none">
<path d="M4800 8884 c-193 -23 -308 -40 -434 -65 -1615 -326 -2838 -1671
-3011 -3313 -20 -192 -20 -590 0 -782 173 -1642 1396 -2988 3011 -3313 296
-59 367 -66 754 -66 387 0 458 7 754 66 1615 325 2838 1671 3011 3313 20 192
20 590 0 782 -25 232 -105 624 -147 714 -6 14 -11 29 -9 33 1 5 -2 6 -7 3 -5
-3 -18 1 -28 9 -37 28 -106 13 -147 -33 -33 -37 -31 -80 12 -248 160 -631 162
-1106 4 -1719 -178 -694 -585 -1371 -1081 -1798 -580 -500 -1301 -811 -2069
-892 -802 -85 -1744 196 -2458 733 -218 163 -366 303 -529 498 -511 612 -815
1379 -864 2179 -17 276 24 629 115 980 178 694 585 1371 1081 1798 580 500
1301 811 2069 892 799 84 1738 -195 2450 -727 91 -68 100 -72 157 -76 56 -4
63 -2 86 23 20 22 25 36 24 80 l0 54 80 -72 c45 -39 91 -80 104 -91 12 -11 22
-17 22 -14 0 3 -46 46 -102 94 -55 49 -108 96 -117 104 -9 9 -61 50 -116 91
-463 349 -986 586 -1541 698 -278 56 -363 64 -714 66 -179 2 -341 1 -360 -1z"/>
<path d="M8518 8051 c-1 -5 -185 -208 -408 -452 -444 -486 -972 -1065 -1755
-1924 -922 -1011 -1166 -1277 -1490 -1623 -301 -322 -320 -341 -336 -324 -20
21 -708 796 -1153 1300 -181 205 -333 372 -339 372 -7 0 -144 -121 -261 -231
-18 -17 -11 -25 225 -286 135 -147 422 -464 639 -703 217 -239 509 -561 649
-715 140 -154 259 -281 265 -282 6 -1 97 93 201 209 105 115 246 271 315 347
210 230 935 1026 1100 1206 86 93 392 429 680 745 1076 1180 1452 1591 1693
1855 l248 270 -128 123 c-70 67 -131 122 -134 122 -4 0 -9 -4 -11 -9z"/>
<path d="M7945 7620 c10 -11 20 -20 23 -20 3 0 -3 9 -13 20 -10 11 -20 20 -23
20 -3 0 3 -9 13 -20z"/>
<path d="M8516 6767 c3 -10 9 -15 12 -12 3 3 0 11 -7 18 -10 9 -11 8 -5 -6z"/>
<path d="M8661 6430 c0 -14 28 -72 29 -59 0 4 -7 22 -15 40 -8 19 -14 27 -14
19z"/>
</g>
</svg>
